<?xml version="1.0" encoding="utf-8"?>
<!-- Generator: Adobe Illustrator 22.1.0, SVG Export Plug-In . SVG Version: 6.00 Build 0)  -->
<svg version="1.1" id="Layer_1" xmlns="http://www.w3.org/2000/svg" xmlns:xlink="http://www.w3.org/1999/xlink" x="0px" y="0px"
	 viewBox="0 0 327.9 104.6" style="enable-background:new 0 0 327.9 104.6;" xml:space="preserve">
<style type="text/css">
	.st0{fill:url(#SVGID_1_);}
	.st1{fill:url(#SVGID_2_);}
	.st2{fill:url(#SVGID_3_);}
	.st3{fill:url(#SVGID_4_);}
	.st4{fill:url(#SVGID_5_);}
	.st5{fill:url(#SVGID_6_);}
	.st6{fill:url(#SVGID_7_);}
	.st7{fill:url(#SVGID_8_);}
	.st8{fill:url(#SVGID_9_);}
	.st9{fill:url(#SVGID_10_);}
	.st10{fill:#0F0F0F;}
</style>
<title>logo-black</title>
<g>
	<linearGradient id="SVGID_1_" gradientUnits="userSpaceOnUse" x1="-3.7439" y1="18.0654" x2="45.3038" y2="90.7816">
		<stop  offset="0" style="stop-color:#2360B1"/>
		<stop  offset="0.25" style="stop-color:#256FBF"/>
		<stop  offset="0.5594" style="stop-color:#2360B1"/>
		<stop  offset="0.8" style="stop-color:#A02D6E"/>
		<stop  offset="0.9" style="stop-color:#F3506F"/>
		<stop  offset="1" style="stop-color:#FCB450"/>
	</linearGradient>
	<path class="st0" d="M27.4,79.9l7.5,14c5.9-3.7,11.7-7.5,17.4-11.5l-23.5-4.3C27.3,77.8,26.7,78.6,27.4,79.9z"/>
	<linearGradient id="SVGID_2_" gradientUnits="userSpaceOnUse" x1="-26.2887" y1="33.272" x2="22.7591" y2="105.9883">
		<stop  offset="0" style="stop-color:#2360B1"/>
		<stop  offset="0.25" style="stop-color:#256FBF"/>
		<stop  offset="0.5594" style="stop-color:#2360B1"/>
		<stop  offset="0.8" style="stop-color:#A02D6E"/>
		<stop  offset="0.9" style="stop-color:#F3506F"/>
		<stop  offset="1" style="stop-color:#FCB450"/>
	</linearGradient>
	<path class="st1" d="M19.1,76.3c-0.3-0.1-1.4,0.6-2.6,1.5L0.2,89.9c-1.7,12.3,8.6,19.3,22.4,11.2c2.6-1.5,5.2-3,7.8-4.5l-9.5-17.9
		C20.1,77.4,19.4,76.3,19.1,76.3z"/>
	<linearGradient id="SVGID_3_" gradientUnits="userSpaceOnUse" x1="31.1558" y1="-5.4748" x2="80.2036" y2="67.2415">
		<stop  offset="0" style="stop-color:#2360B1"/>
		<stop  offset="0.25" style="stop-color:#256FBF"/>
		<stop  offset="0.5594" style="stop-color:#2360B1"/>
		<stop  offset="0.8" style="stop-color:#A02D6E"/>
		<stop  offset="0.9" style="stop-color:#F3506F"/>
		<stop  offset="1" style="stop-color:#FCB450"/>
	</linearGradient>
	<path class="st2" d="M65.6,41.2l-9.6,7.1c-1.2,0.9-1.3,2.4-0.2,3.4L72,67.9c10.1-7.5,11.5-17.7,4.9-26.3l-6.5-1.4
		C68.9,39.9,66.8,40.3,65.6,41.2z"/>
	<linearGradient id="SVGID_4_" gradientUnits="userSpaceOnUse" x1="6.2185" y1="11.3457" x2="55.2662" y2="84.0619">
		<stop  offset="0" style="stop-color:#2360B1"/>
		<stop  offset="0.25" style="stop-color:#256FBF"/>
		<stop  offset="0.5594" style="stop-color:#2360B1"/>
		<stop  offset="0.8" style="stop-color:#A02D6E"/>
		<stop  offset="0.9" style="stop-color:#F3506F"/>
		<stop  offset="1" style="stop-color:#FCB450"/>
	</linearGradient>
	<path class="st3" d="M51.6,54.9c-1-1-2.8-1.1-4-0.3L26.4,70.4c-1.2,0.9-0.9,1.8,0.5,2l31.3,5.8c3.2-2.3,6.4-4.7,9.6-7.2L51.6,54.9z
		"/>
	<linearGradient id="SVGID_5_" gradientUnits="userSpaceOnUse" x1="24.063" y1="-0.6906" x2="73.1107" y2="72.0256">
		<stop  offset="0" style="stop-color:#2360B1"/>
		<stop  offset="0.25" style="stop-color:#256FBF"/>
		<stop  offset="0.5594" style="stop-color:#2360B1"/>
		<stop  offset="0.8" style="stop-color:#A02D6E"/>
		<stop  offset="0.9" style="stop-color:#F3506F"/>
		<stop  offset="1" style="stop-color:#FCB450"/>
	</linearGradient>
	<path class="st4" d="M58.4,37.6l-18.7-4.1c-1.4-0.3-1.7,0.3-0.7,1.3l9.4,9.4c1,1,2.8,1.1,4,0.3l6.5-4.8
		C60,38.9,59.8,37.9,58.4,37.6z"/>
	<linearGradient id="SVGID_6_" gradientUnits="userSpaceOnUse" x1="4.5783" y1="12.452" x2="53.626" y2="85.1683">
		<stop  offset="0" style="stop-color:#2360B1"/>
		<stop  offset="0.25" style="stop-color:#256FBF"/>
		<stop  offset="0.5594" style="stop-color:#2360B1"/>
		<stop  offset="0.8" style="stop-color:#A02D6E"/>
		<stop  offset="0.9" style="stop-color:#F3506F"/>
		<stop  offset="1" style="stop-color:#FCB450"/>
	</linearGradient>
	<path class="st5" d="M21.5,24.8L1.8,5.1c-2.4,4-2.6,10.1,0.6,17l18.4,4C22.2,26.4,22.5,25.8,21.5,24.8z"/>
	<linearGradient id="SVGID_7_" gradientUnits="userSpaceOnUse" x1="-16.5652" y1="26.7134" x2="32.4825" y2="99.4297">
		<stop  offset="0" style="stop-color:#2360B1"/>
		<stop  offset="0.25" style="stop-color:#256FBF"/>
		<stop  offset="0.5594" style="stop-color:#2360B1"/>
		<stop  offset="0.8" style="stop-color:#A02D6E"/>
		<stop  offset="0.9" style="stop-color:#F3506F"/>
		<stop  offset="1" style="stop-color:#FCB450"/>
	</linearGradient>
	<path class="st6" d="M15.2,68.2L6.6,52c0,5.5-0.4,11-1.2,16.4l8.4,1.6C15.3,70.3,15.9,69.4,15.2,68.2z"/>
	<linearGradient id="SVGID_8_" gradientUnits="userSpaceOnUse" x1="24.2207" y1="-0.797" x2="73.2684" y2="71.9193">
		<stop  offset="0" style="stop-color:#2360B1"/>
		<stop  offset="0.25" style="stop-color:#256FBF"/>
		<stop  offset="0.5594" style="stop-color:#2360B1"/>
		<stop  offset="0.8" style="stop-color:#A02D6E"/>
		<stop  offset="0.9" style="stop-color:#F3506F"/>
		<stop  offset="1" style="stop-color:#FCB450"/>
	</linearGradient>
	<path class="st7" d="M35.4,29.3L61.9,35c1.4,0.3,3.5-0.1,4.7-1l0.9-0.7C53,22.3,38.6,12.3,22.5,3.5c-6.9-4.1-12.9-4.3-17-2L31,26.9
		C32,27.9,34,29,35.4,29.3z"/>
	<linearGradient id="SVGID_9_" gradientUnits="userSpaceOnUse" x1="-24.6658" y1="32.1774" x2="24.3819" y2="104.8937">
		<stop  offset="0" style="stop-color:#2360B1"/>
		<stop  offset="0.25" style="stop-color:#256FBF"/>
		<stop  offset="0.5594" style="stop-color:#2360B1"/>
		<stop  offset="0.8" style="stop-color:#A02D6E"/>
		<stop  offset="0.9" style="stop-color:#F3506F"/>
		<stop  offset="1" style="stop-color:#FCB450"/>
	</linearGradient>
	<path class="st8" d="M9,74.4l-4.4-0.8c-0.5,2.7-1.1,5.3-1.9,7.9l6.7-5C10.6,75.6,10.4,74.7,9,74.4z"/>
	<linearGradient id="SVGID_10_" gradientUnits="userSpaceOnUse" x1="2.9793" y1="13.5305" x2="52.027" y2="86.2468">
		<stop  offset="0" style="stop-color:#2360B1"/>
		<stop  offset="0.25" style="stop-color:#256FBF"/>
		<stop  offset="0.5594" style="stop-color:#2360B1"/>
		<stop  offset="0.8" style="stop-color:#A02D6E"/>
		<stop  offset="0.9" style="stop-color:#F3506F"/>
		<stop  offset="1" style="stop-color:#FCB450"/>
	</linearGradient>
	<path class="st9" d="M19.8,65.6c0.7,1.3,2.2,1.6,3.3,0.7l20.8-15.5c1.2-0.9,1.3-2.4,0.2-3.4L29.5,32.8c-1-1-3-2.1-4.4-2.4L3.4,25.7
		c1.1,4.5,1.9,9.1,2.5,13.8L19.8,65.6z"/>
</g>
<g>
	<path class="st10" d="M166.1,51.5c0,14.4-10.7,24.5-26.2,24.5h-20.4V27h20.8C155.5,27,166.1,37,166.1,51.5z M154.8,51.5
		c0-9-6.3-15.3-14.7-15.3h-9.5v30.4h10C148.8,66.7,154.8,60.5,154.8,51.5z"/>
	<path class="st10" d="M223.4,51.5c0,14.1-11.3,25-26.3,25s-26.3-10.8-26.3-25c0-14.3,11.3-24.9,26.3-24.9S223.4,37.3,223.4,51.5z
		 M182.1,51.5c0,8.6,6.9,15.3,15.1,15.3c8.2,0,14.8-6.7,14.8-15.3c0-8.6-6.7-15.2-14.8-15.2C188.9,36.3,182.1,42.9,182.1,51.5z"/>
	<path class="st10" d="M260.8,76L253,62h-1h-10.2v14h-11.1V27h21.3c12.8,0,20.1,6.2,20.1,17c0,7.6-3.2,13-9.2,15.8L273.3,76H260.8z
		 M241.7,52.7h10.2c6.1,0,9.6-2.8,9.6-8.4c0-5.5-3.5-8.2-9.6-8.2h-10.2V52.7z"/>
	<path class="st10" d="M318.6,27v9.2h-26.3v10.6H316v9.2h-23.6v10.9h27V76h-38.1V27H318.6z"/>
</g>
</svg>
